<svg xmlns="http://www.w3.org/2000/svg" xmlns:xlink="http://www.w3.org/1999/xlink" viewBox="0 0 512 512"><g fill="#bfd3ff"><circle cx="14.79" cy="491.71" r="5.48"/><circle cx="83.71" cy="491.71" r="5.48"/><circle cx="152.62" cy="491.71" r="5.48"/><circle cx="221.54" cy="491.71" r="5.48"/><circle cx="290.46" cy="491.71" r="5.48"/><circle cx="359.38" cy="491.71" r="5.48"/><circle cx="428.29" cy="491.71" r="5.48"/><circle cx="14.79" cy="432.78" r="5.48"/><circle cx="83.71" cy="432.78" r="5.48"/><circle cx="152.62" cy="432.78" r="5.48"/><circle cx="221.54" cy="432.78" r="5.48"/><circle cx="290.46" cy="432.78" r="5.48"/><circle cx="359.38" cy="432.78" r="5.48"/><circle cx="428.29" cy="432.78" r="5.48"/><circle cx="14.79" cy="373.85" r="5.48"/><circle cx="83.71" cy="373.85" r="5.48"/><circle cx="152.62" cy="373.85" r="5.48"/><circle cx="221.54" cy="373.85" r="5.48"/><circle cx="290.46" cy="373.85" r="5.48"/><circle cx="359.38" cy="373.85" r="5.48"/><circle cx="428.29" cy="373.85" r="5.48"/><circle cx="83.71" cy="314.93" r="5.48"/><circle cx="152.62" cy="314.93" r="5.48"/><circle cx="221.54" cy="314.93" r="5.48"/><circle cx="290.46" cy="314.93" r="5.48"/><circle cx="359.38" cy="314.93" r="5.48"/><circle cx="428.29" cy="314.93" r="5.48"/><circle cx="14.79" cy="256" r="5.48"/><circle cx="83.71" cy="256" r="5.48"/><circle cx="152.62" cy="256" r="5.48"/><circle cx="221.54" cy="256" r="5.48"/><circle cx="290.46" cy="256" r="5.48"/><circle cx="359.38" cy="256" r="5.48"/><circle cx="428.29" cy="256" r="5.48"/><circle cx="14.79" cy="197.07" r="5.48"/><circle cx="83.71" cy="197.07" r="5.48"/><circle cx="152.62" cy="197.07" r="5.48"/><circle cx="221.54" cy="197.07" r="5.48"/><circle cx="290.46" cy="197.07" r="5.48"/><circle cx="359.38" cy="197.07" r="5.48"/><circle cx="428.29" cy="197.07" r="5.48"/><circle cx="14.79" cy="138.15" r="5.48"/><circle cx="83.71" cy="138.15" r="5.48"/><circle cx="152.62" cy="138.15" r="5.48"/><circle cx="221.54" cy="138.15" r="5.48"/><circle cx="290.46" cy="138.15" r="5.48"/><circle cx="359.38" cy="138.15" r="5.48"/><circle cx="428.29" cy="138.15" r="5.48"/><circle cx="14.79" cy="79.22" r="5.48"/><circle cx="83.71" cy="79.22" r="5.48"/><circle cx="152.62" cy="79.22" r="5.48"/><circle cx="221.54" cy="79.22" r="5.48"/><circle cx="290.46" cy="79.22" r="5.48"/><circle cx="359.38" cy="79.22" r="5.48"/><circle cx="14.79" cy="20.29" r="5.48"/><circle cx="83.71" cy="20.29" r="5.48"/><circle cx="152.62" cy="20.29" r="5.48"/><circle cx="221.54" cy="20.29" r="5.48"/><circle cx="290.46" cy="20.29" r="5.48"/><circle cx="359.38" cy="20.29" r="5.48"/><circle cx="428.29" cy="20.29" r="5.48"/><circle cx="497.21" cy="491.71" r="5.48"/><circle cx="497.21" cy="373.85" r="5.48"/><circle cx="497.21" cy="314.93" r="5.48"/><circle cx="497.21" cy="256" r="5.48"/><circle cx="497.21" cy="197.07" r="5.48"/><circle cx="497.21" cy="138.15" r="5.48"/><circle cx="497.21" cy="79.22" r="5.48"/><circle cx="497.21" cy="20.29" r="5.48"/><circle cx="428.29" cy="79.22" r="14.79"/><circle cx="14.79" cy="314.93" r="14.79"/><circle cx="497.21" cy="432.78" r="14.79"/></g><path d="M351.7 206.64c-36.05-33.76-70.1-48.84-110.23-48.84H183.3c-38.68 0-62.1 16.68-97.58 41.94l-9.22 6.55H58.12a6.07 6.07 0 0 0-5.66 3.89c-10.8 28.05-13.64 51.24-8.72 70.9 5.62 22.45 20.65 34.32 43.48 34.32h3.14c2.9 21.85 21.8 38.8 44.66 38.8s41.75-16.94 44.66-38.8l143.46.18c3 21.76 21.83 38.6 44.63 38.6 22.86 0 41.75-16.94 44.66-38.8h52.1c3.35 0 6.07-2.72 6.07-6.07v-48.5c0-34.36-100.04-51.32-118.9-54.2z" fill="#fff"/><path d="M454.6 242.53l-22.45-2.55s10.52 6.47 10.52 20.88v13.64s-.38 11.08-12.45 11.08h-24.46l3.33 21.87h54.37V254.8l-8.86-12.26zm-281.62 43.04h164.3l-14.6 24H180.1zm-115.06-.27h46.26L96 309.57l-27.24-2.74z" fill="#d4e1ff"/><path d="M116.64 184.5l47.1 46.85h134.52l47.24-19-17.46-19-41.2-20.03-34.45-8.73-57.85-2.56-44.67 5.64z" fill="#bfd3ff"/><g fill="#175fff"><path d="M308.8 315.6c-19.77 0-38.23-.05-56.7-.1l-72.62-.1c-3.6 0-6.5-2.7-6.5-6.06-.01-3.36 2.9-6.08 6.48-6.08l145.85.18c3.6 0 6.5 2.7 6.5 6.06s-2.9 6.08-6.48 6.08H308.8zM96 315.42l-8.77-.01c-22.83 0-37.86-11.87-43.48-34.32-4.92-19.67-2.07-42.87 8.72-70.9a6.07 6.07 0 0 1 5.66-3.89H76.5l9.22-6.55c35.47-25.26 58.9-41.94 97.58-41.94h58.18c40.12 0 74.18 15.08 110.23 48.84 18.86 2.9 118.9 19.86 118.9 54.2v48.5c0 3.35-2.72 6.07-6.07 6.07H410.2c-3.35 0-6.07-2.72-6.07-6.07s2.72-6.07 6.07-6.07h48.28v-42.42c0-14.5-49.53-33.56-110.42-42.48a6.04 6.04 0 0 1-3.3-1.6c-34.6-32.82-65.48-46.82-103.27-46.82H183.3c-34.8 0-55.78 14.94-90.54 39.7l-10.83 7.7a6.09 6.09 0 0 1-3.5 1.11h-16.1c-8.54 23.6-10.83 43.66-6.8 59.72 4.23 16.9 14.6 25.12 31.7 25.12l8.8.01v12.13z"/><path d="M301.2 237.83H163.9a6.12 6.12 0 0 1-4.3-1.78l-42.95-42.96a6.07 6.07 0 0 1 .01-8.59 6.08 6.08 0 0 1 8.59 0l41.17 41.18H300l46.62-18.95c3.1-1.25 6.65.23 7.9 3.34a6.05 6.05 0 0 1-3.34 7.9l-47.72 19.4c-.73.3-1.5.45-2.3.45zM135.02 354.2c-24.86 0-45.1-20.02-45.1-44.63s20.23-44.63 45.1-44.63 45.1 20.02 45.1 44.63-20.23 44.63-45.1 44.63zm0-77.12c-18.17 0-32.95 14.57-32.95 32.5s14.78 32.5 32.95 32.5c18.16 0 32.95-14.57 32.95-32.5s-14.8-32.5-32.95-32.5z"/></g><g fill="#d4e1ff"><path d="M284.62 260.85h-14.66c-3.35 0-6.07-2.72-6.07-6.07s2.72-6.07 6.07-6.07h14.66c3.35 0 6.07 2.72 6.07 6.07a6.07 6.07 0 0 1-6.07 6.07z"/><use xlink:href="#B"/></g><g fill="#175fff"><path d="M280.77 258.48H266.1c-3.35 0-6.07-2.72-6.07-6.07s2.72-6.07 6.07-6.07h14.66c3.35 0 6.07 2.72 6.07 6.07a6.07 6.07 0 0 1-6.07 6.07z"/><use xlink:href="#B" x="-3.85" y="-2.37"/></g><path d="M367.77 342.06c18.17 0 32.95-14.57 32.95-32.5a29.9 29.9 0 0 0-.28-4.04c-2.03 16-15.9 28.45-32.67 28.45s-30.64-12.44-32.67-28.45c-.17 1.33-.28 2.67-.28 4.04 0 17.9 14.78 32.5 32.95 32.5zm-232.77 0c18.17 0 32.95-14.57 32.95-32.5a29.9 29.9 0 0 0-.28-4.04c-2.03 16-15.9 28.45-32.67 28.45s-30.64-12.44-32.67-28.45c-.17 1.33-.28 2.67-.28 4.04 0 17.9 14.8 32.5 32.95 32.5z" fill="#d4e1ff"/><path d="M367.77 354.2c-24.86 0-45.1-20.02-45.1-44.63s20.22-44.63 45.1-44.63 45.1 20.02 45.1 44.63-20.23 44.63-45.1 44.63zm0-77.12c-18.16 0-32.95 14.57-32.95 32.5s14.78 32.5 32.95 32.5 32.95-14.57 32.95-32.5-14.78-32.5-32.95-32.5z" fill="#175fff"/><defs><path id="A" d="M306.6 273.64l5.64 141 33-23.2 27.5 49.92 35-16.9-26.45-49.14 49-8-122.35-98z"/><path id="B" d="M195.38 260.85h-14.66c-3.35 0-6.07-2.72-6.07-6.07s2.72-6.07 6.07-6.07h14.66c3.35 0 6.07 2.72 6.07 6.07s-2.72 6.07-6.07 6.07z"/></defs><use xlink:href="#A" fill="#fff"/><clipPath id="C"><use xlink:href="#A"/></clipPath><path d="M310.56 291.23l87.08 75.87-23.48 3.88-8.63 12.4 26.92 47.98 15.27-6.9-26.45-49.14 49-8-122.35-98-.75 17.9" clip-path="url(#C)" fill="#d4e1ff"/><path d="M433.4 364.2L310.06 263.38c-1.6-1.6-4-2.08-6.1-1.2-2.1.86-3.46 2.9-3.46 5.18l5.63 149.56c0 2.14 1.22 4.1 3.15 5.03s4.22.7 5.9-.62l28.46-22.25 24.84 44.7a5.62 5.62 0 0 0 4.91 2.88c.84 0 1.7-.2 2.5-.6l33.63-16.8c1.37-.68 2.4-1.9 2.85-3.35a5.66 5.66 0 0 0-.45-4.38l-23.4-42.1 40.94-5.63c2.27 0 4.3-1.37 5.18-3.46.87-2.1.4-4.5-1.22-6.12zm-54.42 4c-1.98 0-3.82 1.05-4.83 2.77a5.6 5.6 0 0 0-.08 5.56l25.2 45.32-23.6 11.8-25.4-45.75a5.64 5.64 0 0 0-3.79-2.78c-.38-.08-.75-.1-1.12-.1-1.23 0-2.47.42-3.45 1.2l-24.57 19.2-5.63-124.53 104.23 81.7L379 368.2zm0 0" fill="#175fff"/></svg>